<?xml version="1.0" standalone="no"?>
<!DOCTYPE svg PUBLIC "-//W3C//DTD SVG 20010904//EN"
 "http://www.w3.org/TR/2001/REC-SVG-20010904/DTD/svg10.dtd">
<svg version="1.0" xmlns="http://www.w3.org/2000/svg"
 width="459.000000pt" height="438.000000pt" viewBox="0 0 459.000000 438.000000"
 preserveAspectRatio="xMidYMid meet">

<g transform="translate(0.000000,438.000000) scale(0.100000,-0.100000)"
fill="#000000" stroke="none">
<path d="M0 2190 l0 -2190 2295 0 2295 0 0 1470 c0 1421 -1 1470 -19 1479 -10
6 -22 7 -26 3 -5 -4 -5 -2 -2 4 4 7 0 17 -8 24 -8 7 -15 10 -15 6 0 -3 -20 13
-44 36 -63 62 -75 70 -88 62 -7 -4 -8 -3 -4 5 5 7 -11 34 -40 67 -36 42 -49
52 -56 42 -8 -10 -9 -9 -5 3 7 21 -21 62 -35 53 -7 -4 -8 -2 -4 4 4 6 -1 19
-12 30 -10 10 -28 35 -41 56 -18 29 -26 35 -33 24 -7 -10 -8 -8 -4 5 6 18 -12
53 -48 96 -12 14 -15 21 -6 16 13 -8 13 -6 2 7 -8 9 -19 16 -25 14 -7 -1 -9
-1 -4 1 4 3 7 9 7 14 0 6 -5 7 -12 3 -7 -4 -8 -3 -4 4 11 18 -13 54 -31 48
-12 -5 -13 -3 -5 6 12 15 -7 70 -28 83 -9 6 -9 10 1 16 11 7 9 9 -7 9 -11 0
-29 7 -40 16 -18 14 -18 15 4 4 27 -13 38 -8 26 12 -5 7 -10 22 -11 33 -2 11
-8 22 -13 23 -6 2 -8 8 -5 13 3 5 1 18 -5 29 -6 12 -13 29 -15 38 -3 9 -9 35
-16 57 -6 22 -12 56 -12 76 -2 30 -5 35 -22 32 -15 -4 -16 -2 -7 5 11 7 11 20
3 63 -16 80 -22 138 -21 197 1 48 -11 69 -23 40 -4 -10 -6 -10 -6 -1 -1 6 4
15 9 18 6 3 10 13 10 20 0 13 -268 15 -1925 15 l-1925 0 0 -2190z m3835 1952
c-3 -3 -11 0 -18 7 -9 10 -8 11 6 5 10 -3 15 -9 12 -12z m35 -16 c0 -3 -4 -8
-10 -11 -5 -3 -10 -1 -10 4 0 6 5 11 10 11 6 0 10 -2 10 -4z m-27 -111 c-3 -9
-8 -14 -10 -11 -3 3 -2 9 2 15 9 16 15 13 8 -4z m35 -30 c-3 -3 -9 2 -12 12
-6 14 -5 15 5 6 7 -7 10 -15 7 -18z m35 -155 c3 -11 1 -18 -4 -14 -5 3 -9 12
-9 20 0 20 7 17 13 -6z m2 -50 c3 -6 -1 -7 -9 -4 -18 7 -21 14 -7 14 6 0 13
-4 16 -10z m18 -45 c-7 -21 -12 -19 -10 4 0 11 5 18 9 15 4 -3 5 -11 1 -19z
m-2103 -830 l367 -760 -45 -92 c-25 -50 -49 -90 -52 -88 -3 2 -172 350 -376
774 l-369 770 -238 1 -237 0 14 -32 c20 -46 1203 -2489 1208 -2493 1 -1 296
601 653 1339 l651 1341 258 3 c205 2 257 0 253 -10 -5 -13 -1449 -2980 -1453
-2986 -1 -1 -42 -1 -92 0 l-91 3 684 1410 c377 776 685 1414 685 1418 0 4 -30
7 -67 5 l-67 -3 -686 -1415 -686 -1415 -43 0 -43 0 -719 1493 c-396 821 -719
1495 -719 1498 0 2 190 3 421 2 l422 -3 367 -760z m1438 755 c-18 -52 -1155
-2389 -1162 -2387 -9 3 -1016 2080 -1016 2097 0 6 35 10 88 10 l87 0 335 -693
c184 -380 373 -772 421 -869 l86 -178 488 1015 488 1015 94 0 c56 0 93 -4 91
-10z m736 -19 c3 -5 -2 -15 -12 -22 -15 -12 -16 -12 -5 2 7 9 10 19 6 22 -3 4
-4 7 0 7 3 0 8 -4 11 -9z m90 -219 c3 -5 -1 -9 -9 -9 -8 0 -12 4 -9 9 3 4 7 8
9 8 2 0 6 -4 9 -8z m161 -202 c3 -6 -1 -7 -9 -4 -18 7 -21 14 -7 14 6 0 13 -4
16 -10z m150 -160 c3 -6 -1 -7 -9 -4 -18 7 -21 14 -7 14 6 0 13 -4 16 -10z
m25 -24 c0 -2 -7 -7 -16 -10 -8 -3 -12 -2 -9 4 6 10 25 14 25 6z m145 -136 c3
-6 -1 -7 -9 -4 -18 7 -21 14 -7 14 6 0 13 -4 16 -10z"/>
</g>
</svg>
